<svg id="svg" version="1.1" xmlns="http://www.w3.org/2000/svg" xmlns:xlink="http://www.w3.org/1999/xlink" width="400" height="266.6666666666667" viewBox="0, 0, 400,266.6666666666667"><g id="svgg"><path id="path0" d="M229.688 80.997 C 223.789 81.363,218.428 81.811,217.057 82.051 C 216.341 82.177,213.529 82.575,210.807 82.935 C 208.086 83.296,204.922 83.764,203.776 83.975 C 202.630 84.186,199.757 84.701,197.390 85.120 C 195.024 85.539,191.860 86.178,190.359 86.541 C 188.858 86.904,186.341 87.457,184.766 87.770 C 183.190 88.083,181.198 88.551,180.339 88.810 C 179.479 89.068,177.897 89.481,176.823 89.726 C 175.749 89.972,174.049 90.404,173.047 90.687 C 172.044 90.969,169.993 91.536,168.490 91.945 C 166.986 92.355,164.935 92.980,163.932 93.334 C 162.930 93.689,161.175 94.227,160.034 94.530 C 158.893 94.834,157.604 95.246,157.170 95.446 C 156.735 95.646,155.326 96.155,154.036 96.576 C 150.781 97.639,145.671 99.549,144.287 100.221 C 143.651 100.529,143.019 100.781,142.882 100.781 C 142.745 100.781,141.800 101.182,140.783 101.671 C 139.765 102.160,138.318 102.803,137.567 103.099 C 136.817 103.394,135.762 103.909,135.224 104.242 C 134.685 104.575,133.659 105.061,132.943 105.322 C 132.227 105.583,131.289 106.121,130.859 106.517 C 129.642 107.640,125.502 110.543,123.889 111.404 C 123.088 111.831,121.751 112.736,120.918 113.415 C 120.085 114.093,119.257 114.705,119.079 114.773 C 118.250 115.091,116.909 117.416,116.885 118.574 C 116.855 120.079,116.921 120.164,118.754 120.986 C 119.605 121.368,120.239 121.783,120.162 121.908 C 120.085 122.033,120.263 122.135,120.558 122.135 C 120.852 122.135,121.094 122.253,121.094 122.396 C 121.094 122.539,121.387 122.656,121.745 122.656 C 122.103 122.656,122.397 122.744,122.398 122.852 C 122.399 122.959,123.132 123.262,124.026 123.526 C 124.920 123.790,125.885 124.103,126.172 124.223 C 127.157 124.634,129.871 124.705,130.579 124.337 C 130.949 124.145,131.740 123.952,132.338 123.908 C 133.499 123.823,134.066 123.198,133.030 123.147 C 132.551 123.123,132.524 123.090,132.902 122.993 C 133.352 122.877,133.348 122.846,132.837 122.488 C 132.276 122.095,132.090 121.354,132.552 121.354 C 132.695 121.354,132.813 121.178,132.813 120.964 C 132.813 120.354,134.250 120.483,135.726 121.224 C 136.439 121.582,137.301 121.875,137.642 121.875 C 141.425 121.875,145.851 127.040,144.823 130.254 C 143.673 133.846,143.375 134.601,142.818 135.334 C 142.471 135.790,142.188 136.235,142.188 136.322 C 142.188 136.502,142.090 136.626,140.561 138.383 C 139.952 139.084,139.241 139.904,138.982 140.206 C 138.723 140.508,136.673 142.645,134.425 144.955 C 129.550 149.965,128.290 151.319,127.083 152.842 C 126.582 153.475,126.055 154.122,125.911 154.282 C 125.330 154.928,123.438 157.805,123.438 158.042 C 123.438 158.182,123.291 158.451,123.111 158.640 C 122.776 158.994,122.200 160.118,121.534 161.719 C 120.959 163.103,120.764 169.165,121.279 169.679 C 121.494 169.895,122.167 170.741,122.774 171.559 C 124.254 173.554,125.226 174.479,125.842 174.479 C 126.270 174.479,127.661 175.264,128.127 175.769 C 128.790 176.487,134.895 179.348,138.021 180.406 C 139.525 180.915,140.990 181.475,141.276 181.651 C 142.429 182.360,146.235 183.390,148.630 183.641 C 153.172 184.117,155.972 183.976,154.941 183.323 C 154.358 182.955,155.411 183.004,157.628 183.451 C 160.508 184.030,163.122 184.333,166.406 184.469 C 169.568 184.600,169.336 184.550,164.714 184.103 C 147.510 182.440,139.010 177.737,142.296 171.700 C 145.339 166.109,155.072 160.062,192.318 140.620 C 194.323 139.573,196.868 138.209,197.973 137.587 C 199.078 136.966,200.032 136.458,200.093 136.458 C 200.291 136.458,210.678 130.736,215.104 128.189 C 254.691 105.406,262.141 92.259,237.370 88.898 C 213.691 85.685,162.075 94.204,133.734 106.002 C 132.639 106.458,131.690 106.777,131.624 106.711 C 131.387 106.474,142.767 101.218,147.135 99.548 C 184.087 85.419,230.142 78.116,258.333 81.917 C 285.529 85.584,283.756 98.449,253.125 119.716 C 239.226 129.366,224.648 137.645,195.443 152.474 C 175.521 162.590,170.560 165.383,166.027 169.039 C 159.741 174.107,161.349 177.699,170.910 179.944 C 180.210 182.128,205.120 181.990,220.833 179.668 C 223.770 179.234,226.582 178.826,227.083 178.761 L 227.995 178.642 227.083 178.997 C 226.582 179.192,224.680 179.684,222.857 180.089 C 221.034 180.495,219.587 180.872,219.642 180.927 C 219.804 181.089,227.456 179.481,228.555 179.055 C 229.106 178.841,230.604 178.474,231.883 178.241 C 233.162 178.007,234.625 177.592,235.134 177.319 C 235.643 177.046,236.302 176.823,236.598 176.823 C 236.893 176.823,237.247 176.711,237.384 176.575 C 237.637 176.321,240.321 175.524,245.443 174.180 C 249.051 173.233,256.227 170.941,257.943 170.187 C 258.659 169.872,259.831 169.401,260.547 169.141 C 263.915 167.915,268.934 164.945,270.260 163.392 C 273.294 159.841,270.693 156.536,263.411 154.690 C 262.122 154.363,260.951 154.010,260.807 153.904 C 260.664 153.799,259.375 153.394,257.943 153.004 C 254.442 152.052,254.579 152.104,252.214 150.842 C 250.094 149.711,248.453 148.363,247.522 146.988 C 246.940 146.127,246.770 141.018,247.312 140.671 C 247.463 140.574,247.675 140.202,247.783 139.844 C 248.015 139.077,249.275 136.386,249.491 136.198 C 249.573 136.126,250.217 135.130,250.921 133.984 C 251.625 132.839,252.321 131.775,252.468 131.621 C 252.614 131.468,253.027 130.963,253.385 130.500 C 253.743 130.037,254.242 129.413,254.492 129.112 C 254.743 128.812,254.948 128.483,254.948 128.381 C 254.948 128.279,255.222 127.916,255.557 127.575 C 255.891 127.233,257.125 125.627,258.297 124.006 C 259.470 122.385,260.573 120.882,260.748 120.667 C 261.722 119.474,265.485 116.000,266.297 115.546 C 266.511 115.426,267.063 114.953,267.523 114.494 C 267.983 114.036,268.941 113.217,269.652 112.676 C 270.363 112.134,271.332 111.146,271.805 110.480 C 272.279 109.814,272.752 109.205,272.857 109.127 C 273.238 108.841,273.958 107.328,273.958 106.811 C 273.958 106.519,274.076 106.208,274.219 106.120 C 274.362 106.031,274.479 105.731,274.479 105.453 C 274.479 105.175,274.362 104.948,274.219 104.948 C 274.076 104.948,273.958 104.772,273.958 104.557 C 273.958 104.342,273.841 104.167,273.698 104.167 C 273.555 104.167,273.438 104.275,273.438 104.408 C 273.438 104.652,271.862 105.542,271.706 105.386 C 271.659 105.340,272.238 104.548,272.992 103.627 C 274.814 101.401,276.563 98.798,276.563 98.310 C 276.563 98.094,276.678 97.917,276.820 97.917 C 276.961 97.917,277.152 97.448,277.244 96.875 C 277.335 96.302,277.513 95.833,277.637 95.833 C 278.221 95.833,277.879 90.941,277.206 89.662 C 276.067 87.496,274.524 86.337,270.020 84.262 C 264.002 81.489,245.655 80.004,229.688 80.997 M222.442 97.228 C 242.501 100.490,230.578 112.194,179.688 139.197 C 162.281 148.433,154.992 152.444,148.828 156.181 C 131.619 166.612,127.882 174.270,137.591 179.207 C 139.822 180.341,139.230 180.376,136.291 179.283 C 124.171 174.776,122.001 168.970,129.484 161.064 C 133.335 156.995,137.102 154.090,149.740 145.444 C 173.643 129.090,179.010 123.243,175.881 116.964 C 172.152 109.480,147.471 108.002,127.772 114.084 C 123.061 115.538,123.928 115.016,131.901 111.599 C 147.516 104.907,175.619 98.631,196.615 97.148 C 198.835 96.991,201.178 96.821,201.823 96.769 C 205.109 96.507,220.052 96.839,222.442 97.228 M152.394 117.063 C 165.645 118.960,167.947 123.891,159.315 131.893 C 157.014 134.026,151.459 138.318,145.313 142.713 C 128.922 154.430,122.135 161.253,122.135 166.010 C 122.135 166.354,122.018 166.708,121.875 166.797 C 121.487 167.036,121.560 164.977,122.006 163.085 C 123.052 158.649,126.407 153.946,134.128 146.094 C 143.137 136.931,145.317 133.613,145.310 129.074 C 145.299 122.244,135.056 118.340,121.094 119.844 L 119.401 120.026 120.703 119.639 C 129.441 117.041,143.983 115.859,152.394 117.063 M259.602 121.070 C 259.406 121.343,258.240 122.896,257.013 124.520 C 241.898 144.524,242.420 149.071,260.434 154.285 C 269.618 156.943,272.065 158.768,270.574 161.847 C 268.282 166.582,254.700 171.903,235.341 175.652 C 229.396 176.803,228.458 176.743,233.768 175.551 C 253.508 171.121,266.507 164.235,262.567 160.294 C 260.551 158.278,257.855 157.568,244.271 155.472 C 236.540 154.279,233.587 152.729,233.600 149.870 C 233.612 147.405,233.953 146.997,247.251 133.567 C 253.016 127.745,258.186 122.439,258.739 121.777 C 259.750 120.568,260.269 120.142,259.602 121.070 M239.712 135.482 C 229.020 144.250,223.729 150.334,223.704 153.889 C 223.672 158.520,231.207 161.747,243.846 162.516 C 254.720 163.177,256.356 164.499,250.086 167.557 C 233.001 175.893,181.611 179.647,175.763 172.986 C 173.279 170.157,177.326 167.398,198.828 157.262 C 218.343 148.063,230.493 141.543,238.044 136.216 C 240.421 134.540,241.370 134.122,239.712 135.482 M217.188 181.290 C 216.543 181.423,213.848 181.877,211.198 182.298 C 208.548 182.719,207.201 183.002,208.203 182.928 C 211.194 182.707,217.520 181.738,218.359 181.373 C 219.269 180.976,218.844 180.946,217.188 181.290 M202.214 183.495 C 200.781 183.694,197.793 184.017,195.573 184.214 C 193.353 184.410,192.122 184.584,192.839 184.600 C 195.532 184.659,205.838 183.572,206.222 183.188 C 206.408 183.001,204.995 183.110,202.214 183.495 M170.515 184.826 C 171.127 184.881,172.065 184.881,172.598 184.825 C 173.131 184.769,172.630 184.724,171.484 184.725 C 170.339 184.726,169.902 184.771,170.515 184.826 M188.216 184.826 C 188.825 184.881,189.821 184.881,190.430 184.826 C 191.038 184.771,190.540 184.726,189.323 184.726 C 188.105 184.726,187.607 184.771,188.216 184.826 M179.245 185.090 C 180.505 185.138,182.497 185.138,183.672 185.089 C 184.846 185.041,183.815 185.002,181.380 185.002 C 178.945 185.003,177.984 185.042,179.245 185.090 " stroke="none" fill="#f9faf9" fill-rule="evenodd"></path><path id="path1" d="M137.500 116.843 C 133.191 117.158,124.298 118.602,121.224 119.487 C 120.746 119.624,122.112 119.664,124.740 119.588 C 141.192 119.118,148.725 124.812,144.113 134.231 C 142.919 136.670,140.228 139.938,134.941 145.370 C 124.743 155.849,121.549 160.805,121.637 166.016 C 121.652 166.918,121.759 166.710,122.509 164.323 C 124.162 159.062,130.136 153.520,147.910 140.755 C 162.554 130.239,166.522 125.278,163.479 121.290 C 160.884 117.887,149.618 115.959,137.500 116.843 M254.818 126.037 C 252.383 128.612,247.886 133.152,244.826 136.127 C 229.094 151.419,229.370 153.197,247.917 155.976 C 261.432 158.002,265.489 160.207,262.621 163.968 C 260.095 167.279,247.739 172.418,235.713 175.158 C 231.031 176.225,232.249 176.217,237.532 175.146 C 257.907 171.016,270.833 165.257,270.833 160.308 C 270.833 158.180,268.061 156.561,260.807 154.456 C 242.815 149.234,241.951 144.922,255.252 126.731 C 256.839 124.562,258.437 122.464,258.805 122.070 C 259.172 121.676,259.421 121.355,259.359 121.355 C 259.296 121.356,257.253 123.463,254.818 126.037 M237.630 136.613 C 228.729 142.702,216.580 149.123,194.922 159.185 C 173.505 169.135,170.352 172.938,181.587 175.270 C 198.357 178.751,241.973 173.273,251.907 166.438 C 255.216 164.161,253.668 163.199,246.007 162.768 C 229.072 161.814,221.731 158.047,224.191 151.572 C 225.378 148.449,230.456 143.086,238.806 136.138 C 240.412 134.802,240.083 134.935,237.630 136.613 " stroke="none" fill="#5eb84a" fill-rule="evenodd"></path><path id="path2" d="M227.495 81.639 C 195.866 84.021,154.248 94.616,134.505 105.313 C 132.935 106.164,133.139 106.106,136.979 104.613 C 169.078 92.132,222.522 84.581,242.530 89.700 C 257.747 93.593,254.365 102.775,232.202 117.735 C 221.268 125.116,211.086 130.936,186.458 143.883 C 160.246 157.662,153.115 161.807,146.687 166.999 C 135.868 175.738,142.487 181.501,166.406 184.171 C 170.450 184.622,190.309 184.622,194.922 184.171 C 205.851 183.102,218.672 181.097,224.479 179.549 C 226.155 179.102,226.061 179.111,220.148 179.956 C 195.208 183.517,166.945 181.771,162.861 176.417 C 159.538 172.061,165.472 167.513,192.057 154.037 C 220.171 139.787,230.809 133.953,244.304 125.384 C 283.489 100.501,287.761 86.189,257.292 81.876 C 253.162 81.291,234.126 81.140,227.495 81.639 M204.818 96.778 C 185.695 97.552,162.152 101.694,142.947 107.661 C 138.091 109.170,126.861 113.617,126.308 114.250 C 126.233 114.336,126.406 114.316,126.693 114.206 C 128.206 113.627,135.727 111.884,138.672 111.431 C 158.865 108.322,174.776 111.111,176.527 118.066 C 178.072 124.203,172.507 130.069,151.637 144.301 C 135.715 155.159,130.011 159.773,127.034 164.201 C 123.538 169.402,125.400 174.093,132.269 177.389 C 135.892 179.128,139.672 180.413,136.694 178.894 C 132.769 176.891,131.252 172.751,133.133 169.177 C 136.316 163.130,147.730 155.754,180.339 138.673 C 218.256 118.810,234.933 106.319,230.967 100.749 C 228.915 97.868,218.176 96.237,204.818 96.778 " stroke="none" fill="#1c3b74" fill-rule="evenodd"></path><path id="path3" d="M239.142 81.184 C 240.689 81.230,243.150 81.230,244.611 81.184 C 246.071 81.137,244.805 81.100,241.797 81.100 C 238.789 81.100,237.594 81.138,239.142 81.184 M275.000 87.891 C 275.486 88.392,275.942 88.802,276.014 88.802 C 276.085 88.802,275.746 88.392,275.260 87.891 C 274.775 87.389,274.318 86.979,274.247 86.979 C 274.175 86.979,274.514 87.389,275.000 87.891 M221.680 88.215 C 223.076 88.262,225.361 88.262,226.758 88.215 C 228.154 88.168,227.012 88.130,224.219 88.130 C 221.426 88.130,220.283 88.168,221.680 88.215 M205.667 96.799 C 205.991 96.861,206.460 96.859,206.709 96.794 C 206.958 96.728,206.693 96.677,206.120 96.680 C 205.547 96.683,205.343 96.736,205.667 96.799 M214.388 96.794 C 214.639 96.860,215.049 96.860,215.299 96.794 C 215.550 96.729,215.345 96.675,214.844 96.675 C 214.342 96.675,214.137 96.729,214.388 96.794 M267.301 108.398 L 266.536 109.245 267.383 108.480 C 267.848 108.059,268.229 107.678,268.229 107.634 C 268.229 107.432,268.014 107.610,267.301 108.398 M129.280 161.263 L 128.516 162.109 129.362 161.345 C 130.151 160.632,130.328 160.417,130.127 160.417 C 130.082 160.417,129.701 160.798,129.280 161.263 M204.232 181.430 C 204.482 181.495,204.893 181.495,205.143 181.430 C 205.394 181.364,205.189 181.310,204.688 181.310 C 204.186 181.310,203.981 181.364,204.232 181.430 M185.221 181.690 C 185.472 181.755,185.882 181.755,186.133 181.690 C 186.383 181.624,186.178 181.571,185.677 181.571 C 185.176 181.571,184.971 181.624,185.221 181.690 M198.896 181.695 C 199.220 181.757,199.689 181.755,199.938 181.689 C 200.187 181.624,199.922 181.573,199.349 181.576 C 198.776 181.579,198.572 181.632,198.896 181.695 M178.711 184.829 C 179.964 184.877,182.015 184.877,183.268 184.829 C 184.521 184.782,183.496 184.743,180.990 184.743 C 178.483 184.743,177.458 184.782,178.711 184.829 " stroke="none" fill="#7184aa" fill-rule="evenodd"></path><path id="path4" d="M235.094 81.174 C 235.418 81.236,235.887 81.234,236.136 81.169 C 236.385 81.103,236.120 81.052,235.547 81.055 C 234.974 81.058,234.770 81.111,235.094 81.174 M247.721 81.176 C 248.115 81.236,248.760 81.236,249.154 81.176 C 249.548 81.116,249.225 81.068,248.438 81.068 C 247.650 81.068,247.327 81.116,247.721 81.176 M215.690 88.461 C 215.941 88.526,216.351 88.526,216.602 88.461 C 216.852 88.395,216.647 88.342,216.146 88.342 C 215.645 88.342,215.439 88.395,215.690 88.461 M211.263 88.721 C 211.514 88.787,211.924 88.787,212.174 88.721 C 212.425 88.656,212.220 88.602,211.719 88.602 C 211.217 88.602,211.012 88.656,211.263 88.721 M203.190 96.794 C 203.441 96.860,203.851 96.860,204.102 96.794 C 204.352 96.729,204.147 96.675,203.646 96.675 C 203.145 96.675,202.939 96.729,203.190 96.794 M216.084 96.799 C 216.408 96.861,216.876 96.859,217.125 96.794 C 217.374 96.728,217.109 96.677,216.536 96.680 C 215.964 96.683,215.760 96.736,216.084 96.799 M246.354 106.380 C 245.722 107.025,245.263 107.552,245.334 107.552 C 245.406 107.552,245.982 107.025,246.615 106.380 C 247.247 105.736,247.706 105.208,247.634 105.208 C 247.563 105.208,246.987 105.736,246.354 106.380 M150.329 110.343 C 150.725 110.403,151.311 110.401,151.631 110.340 C 151.951 110.278,151.628 110.229,150.911 110.231 C 150.195 110.233,149.933 110.283,150.329 110.343 M155.273 110.346 C 155.811 110.402,156.689 110.402,157.227 110.346 C 157.764 110.290,157.324 110.244,156.250 110.244 C 155.176 110.244,154.736 110.290,155.273 110.346 M176.628 119.922 C 176.631 120.495,176.684 120.699,176.747 120.375 C 176.809 120.051,176.807 119.582,176.741 119.333 C 176.676 119.084,176.625 119.349,176.628 119.922 M122.721 119.711 C 122.972 119.776,123.382 119.776,123.633 119.711 C 123.883 119.645,123.678 119.592,123.177 119.592 C 122.676 119.592,122.471 119.645,122.721 119.711 M255.850 124.805 L 254.557 126.172 255.875 124.929 C 256.599 124.245,257.292 123.776,257.414 123.887 C 257.536 123.998,257.551 123.942,257.448 123.763 C 257.200 123.331,257.312 123.258,255.850 124.805 M171.212 129.232 L 170.182 130.339 171.289 129.309 C 172.318 128.352,172.516 128.125,172.318 128.125 C 172.276 128.125,171.778 128.623,171.212 129.232 M145.378 129.297 C 145.381 129.870,145.434 130.074,145.497 129.750 C 145.559 129.426,145.557 128.957,145.491 128.708 C 145.426 128.459,145.375 128.724,145.378 129.297 M247.656 133.203 C 246.589 134.277,245.775 135.156,245.846 135.156 C 245.918 135.156,246.850 134.277,247.917 133.203 C 248.984 132.129,249.798 131.250,249.727 131.250 C 249.655 131.250,248.723 132.129,247.656 133.203 M244.645 136.263 L 243.880 137.109 244.727 136.345 C 245.192 135.924,245.573 135.543,245.573 135.498 C 245.573 135.297,245.358 135.474,244.645 136.263 M136.833 143.294 L 136.068 144.141 136.914 143.376 C 137.703 142.663,137.880 142.448,137.679 142.448 C 137.634 142.448,137.253 142.829,136.833 143.294 M132.145 158.398 L 131.380 159.245 132.227 158.480 C 133.015 157.767,133.193 157.552,132.991 157.552 C 132.947 157.552,132.566 157.933,132.145 158.398 M261.833 164.648 L 261.068 165.495 261.914 164.730 C 262.380 164.309,262.760 163.928,262.760 163.884 C 262.760 163.682,262.546 163.860,261.833 164.648 M136.055 165.430 L 135.026 166.536 136.133 165.507 C 136.742 164.941,137.240 164.443,137.240 164.400 C 137.240 164.203,137.013 164.400,136.055 165.430 M125.060 169.010 C 125.060 169.512,125.114 169.717,125.180 169.466 C 125.245 169.215,125.245 168.805,125.180 168.555 C 125.114 168.304,125.060 168.509,125.060 169.010 M203.715 176.229 C 204.110 176.288,204.696 176.287,205.017 176.225 C 205.337 176.163,205.013 176.114,204.297 176.116 C 203.581 176.118,203.319 176.169,203.715 176.229 M194.466 176.493 C 195.075 176.548,196.071 176.548,196.680 176.493 C 197.288 176.438,196.790 176.393,195.573 176.393 C 194.355 176.393,193.857 176.438,194.466 176.493 M181.576 181.430 C 181.826 181.495,182.236 181.495,182.487 181.430 C 182.738 181.364,182.533 181.310,182.031 181.310 C 181.530 181.310,181.325 181.364,181.576 181.430 M202.669 181.430 C 202.920 181.495,203.330 181.495,203.581 181.430 C 203.831 181.364,203.626 181.310,203.125 181.310 C 202.624 181.310,202.419 181.364,202.669 181.430 M189.388 181.705 C 191.071 181.750,193.825 181.750,195.508 181.705 C 197.191 181.660,195.814 181.622,192.448 181.622 C 189.082 181.622,187.705 181.660,189.388 181.705 M174.154 184.824 C 174.619 184.882,175.381 184.882,175.846 184.824 C 176.312 184.766,175.931 184.719,175.000 184.719 C 174.069 184.719,173.688 184.766,174.154 184.824 M185.875 184.820 C 186.199 184.882,186.668 184.880,186.917 184.814 C 187.166 184.749,186.901 184.698,186.328 184.701 C 185.755 184.704,185.551 184.757,185.875 184.820 " stroke="none" fill="#8a99bd" fill-rule="evenodd"></path></g></svg>